<?xml version="1.0" standalone="yes"?>
<svg xmlns="http://www.w3.org/2000/svg" width="3264" height="1275">
<path style="fill:#010101; stroke:none;" d="M0 0L0 1275L3264 1275L3264 0L0 0z"/>
<path style="fill:#1b5f21; stroke:none;" d="M1737 658C1737.01 668.676 1738.68 679.753 1741.72 690C1761.44 756.438 1835.64 775.587 1897 771.089C1943.53 767.678 1990.89 743.127 2007.31 697C2010.95 686.754 2013.17 675.855 2013.91 665C2018.18 602.65 1966.1 571.768 1914 554.333C1890.91 546.609 1847.69 538.389 1836.52 514C1828.1 495.618 1839.99 475.481 1859 471.453C1883.66 466.229 1909.86 481.48 1911 508L2009 508C2008.97 497.542 2006.99 487.039 2004.14 477C1983.94 405.738 1897.52 389.098 1834 400.576C1790.4 408.453 1750.32 435.707 1740.51 481C1738.16 491.848 1737.12 503.934 1738.17 515C1739.31 527.014 1741.28 538.915 1746.31 550C1767.22 596.045 1822.81 607.605 1866 622C1888.69 629.561 1935.17 648.939 1914.87 681C1899.64 705.036 1860.78 704.499 1843.21 684C1839 679.085 1836.43 673.244 1834.9 667C1834.16 664 1834.32 659.406 1830.77 658.318C1822.58 655.807 1810.57 658 1802 658L1737 658z"/>
<path style="fill:#0c9517; stroke:none;" d="M1918 402L1919 403L1918 402z"/>
<path style="fill:#4daf51; stroke:none;" d="M133 409L133 768L171 768L171 488L172 488C179.205 514.142 194.669 540.302 205.919 565C226.966 611.206 247.156 657.805 268.231 704C275.201 719.278 281.799 734.721 288.769 750C290.923 754.722 293.077 763.942 297.498 766.972C303.313 770.958 319.038 768 326 768L358.14 695L423.306 549L450 488L451 488L451 768L489 768L489 409L459 409L448.074 410.603L434.14 441L405.576 505L338.576 655L312 716L310 716L279.306 646L216.86 506L187.86 441L173.926 410.603L163 409L133 409z"/>
<path style="fill:#0c9517; stroke:none;" d="M446 413L447 414L446 413z"/>
<path style="fill:#07f907; stroke:none;" d="M445 415L446 416L445 415z"/>
<path style="fill:#0c9517; stroke:none;" d="M1962 421L1963 422L1962 421z"/>
<path style="fill:#07f907; stroke:none;" d="M441 424L442 425L441 424z"/>
<path style="fill:#0c9517; stroke:none;" d="M1969 426L1970 427L1969 426z"/>
<path style="fill:#07f907; stroke:none;" d="M183 431L184 432L183 431z"/>
<path style="fill:#0c9517; stroke:none;" d="M438 431L439 432L438 431z"/>
<path style="fill:#07f907; stroke:none;" d="M437 433L438 434L437 433z"/>
<path style="fill:#0c9517; stroke:none;" d="M1979 435L1980 436L1979 435M1982 438L1983 439L1982 438z"/>
<path style="fill:#07f907; stroke:none;" d="M187 440L188 441L187 440z"/>
<path style="fill:#0c9517; stroke:none;" d="M434 440L435 441L434 440M433 442L434 443L433 442M1990 448L1991 449L1990 448M191 449L192 450L191 449M430 449L431 450L430 449M429 451L430 452L429 451M195 458L196 459L195 458M425 460L426 461L425 460z"/>
<path style="fill:#07f907; stroke:none;" d="M424 462L425 463L424 462M420 471L421 472L420 471z"/>
<path style="fill:#1b5f21; stroke:none;" d="M2706 730L2707 730L2707 768L2798 768L2798 550L2798 496L2796.4 478.028L2773 477L2707 477L2707 515C2661.41 455.902 2568.03 460.851 2522.67 518C2477.73 574.61 2477.6 673.309 2524.44 729C2557.27 768.039 2610.83 782.068 2659 766C2675.9 760.362 2698.75 747.126 2706 730M2947 515L2946 515L2946 477L2879 477C2874.21 477 2859.37 474.552 2856.18 478.603C2852.77 482.941 2855 496.568 2855 502C2854.99 523.985 2854.61 546.059 2855.12 568C2856.96 648.602 2855 729.399 2855 810L2855 879C2855 884.846 2852.32 899.709 2856.03 904.397C2859.24 908.455 2874.19 906 2879 906L2946 906L2946 731C2957.21 743.83 2969.33 755.457 2985 762.691C3038.48 787.372 3104.55 766.12 3136.65 718C3174.58 661.115 3172.54 573.475 3131.1 519C3098.24 475.811 3031.96 458.928 2983 483.756C2969.4 490.652 2953.97 501.008 2947 515M2033 477C2033.51 488.652 2038.46 500.796 2041.58 512C2046.66 530.308 2051.49 548.691 2056.58 567C2075.03 633.411 2097.07 700.509 2111 768L2211 768C2223.62 706.857 2240.07 645.095 2257 585L2258 585L2266.58 623L2290.35 721L2298.35 754L2302.56 766.972L2329 768L2402 768C2416.71 696.751 2440.13 626.236 2459.15 556C2466.13 530.25 2476.44 503.44 2480 477L2418 477L2395.59 478.028L2391.8 491L2384.8 527L2366 623L2356 677L2354 677L2341.88 624L2316.58 518L2307 477L2211 477L2177.35 620L2164 679L2153.6 631L2133.6 530L2126 492L2122.26 478.028L2099 477L2033 477z"/>
<path style="fill:#4daf51; stroke:none;" d="M923 529L922 529L922 483L895 483L885.028 484.603L884 504L884 558L884 768L922 768L922 643C922 611.977 920.9 580.042 936.312 552C963.002 503.435 1044.75 495.514 1076.06 544.001C1093.29 570.685 1092 602.554 1092 633L1092 768L1129 768L1129 641C1129 611.809 1127.97 580.468 1142.31 554C1171.56 500.003 1257.79 495.957 1287.68 552C1301.06 577.086 1299 606.564 1299 634L1299 768L1336 768L1336 626C1336 587.058 1335.63 546.696 1309.54 515C1274.18 472.053 1204.34 467.139 1159 496.054C1143.24 506.104 1123.03 526.232 1121 546C1109.98 526.632 1101.37 509.369 1082 496.516C1035.87 465.914 947.094 470.944 923 529z"/>
<path style="fill:#0c9517; stroke:none;" d="M1233 478L1234 479L1233 478M675 479L676 480L675 479z"/>
<path style="fill:#4daf51; stroke:none;" d="M818 677L790 677C786.818 677 781.411 675.996 778.702 678.028C774.391 681.261 772.459 692.172 769.713 697C763.462 707.988 754.622 717.424 744 724.301C697.619 754.327 632.288 740.033 602.345 694C591.251 676.944 591.476 659.519 586 641L821 641C824.316 623.138 823.326 600.77 819.8 583C816.497 566.353 810.358 550.304 801.136 536C759.178 470.923 659.919 461.463 600 506.475C572.686 526.994 555.61 559.577 550.424 593C540.561 656.568 559.563 726.911 621 757.63C690.115 792.187 806.095 765.333 818 677M1639 709L1640 709L1640 768L1668 768L1677.4 765.682L1678 748L1678 704L1678 550L1678 502L1676.97 484.603L1667 483L1640 483L1640 543C1602.19 469.163 1493.31 458.285 1435 514.039C1388.9 558.124 1381.28 635.809 1405.01 693C1433.92 762.679 1520.99 792.752 1588 759.247C1607.31 749.591 1632.2 730.477 1639 709z"/>
<path style="fill:#0c9517; stroke:none;" d="M1540 479L1541 480L1540 479z"/>
<path style="fill:#07f907; stroke:none;" d="M416 480L417 481L416 480M1197 480L1198 481L1197 480z"/>
<path style="fill:#0c9517; stroke:none;" d="M1248 480L1249 481L1248 480M1506 480L1507 481L1506 480z"/>
<path style="fill:#07f907; stroke:none;" d="M1549 480L1550 481L1549 480M986 481L987 482L986 481M1555 481L1556 482L1555 481z"/>
<path style="fill:#0c9517; stroke:none;" d="M721 482L722 483L721 482M1839 482L1840 483L1839 482M649 483L650 484L649 483z"/>
<path style="fill:#07f907; stroke:none;" d="M884 483L885 484L884 483M979 483L980 484L979 483M645 484L646 485L645 484z"/>
<path style="fill:#0c9517; stroke:none;" d="M729 484L730 485L729 484z"/>
<path style="fill:#07f907; stroke:none;" d="M976 484L977 485L976 484M1568 484L1569 485L1568 484z"/>
<path style="fill:#0c9517; stroke:none;" d="M2124 484L2125 485L2124 484M973 485L974 486L973 485z"/>
<path style="fill:#07f907; stroke:none;" d="M1177 486L1178 487L1177 486z"/>
<path style="fill:#0c9517; stroke:none;" d="M413 487L414 488L413 487z"/>
<path style="fill:#07f907; stroke:none;" d="M1478 487L1479 488L1478 487z"/>
<path style="fill:#0c9517; stroke:none;" d="M966 488L967 489L966 488M1172 488L1173 489L1172 488M3095 488L3096 489L3095 488z"/>
<path style="fill:#07f907; stroke:none;" d="M412 489L413 490L412 489z"/>
<path style="fill:#0c9517; stroke:none;" d="M630 489L631 490L630 489M1170 489L1171 490L1170 489M1168 490L1169 491L1168 490z"/>
<path style="fill:#07f907; stroke:none;" d="M1278 490L1279 491L1278 490z"/>
<path style="fill:#0c9517; stroke:none;" d="M1073 491L1074 492L1073 491z"/>
<path style="fill:#07f907; stroke:none;" d="M1166 491L1167 492L1166 491M1468 491L1469 492L1468 491z"/>
<path style="fill:#0c9517; stroke:none;" d="M958 492L959 493L958 492M621 493L622 494L621 493M1163 493L1164 494L1163 493M1283 493L1284 494L1283 493z"/>
<path style="fill:#07f907; stroke:none;" d="M1464 493L1465 494L1464 493z"/>
<path style="fill:#0c9517; stroke:none;" d="M2685 493L2686 494L2685 493M447 494L448 495L447 494M619 494L620 495L619 494M1078 494L1079 495L1078 494z"/>
<path style="fill:#07f907; stroke:none;" d="M1161 494L1162 495L1161 494M617 495L618 496L617 495z"/>
<path style="fill:#0c9517; stroke:none;" d="M953 495L954 496L953 495M175 496L176 497L175 496z"/>
<path style="fill:#07f907; stroke:none;" d="M212 496L213 497L212 496z"/>
<path style="fill:#0c9517; stroke:none;" d="M758 496L759 497L758 496M1158 496L1159 497L1158 496z"/>
<path style="fill:#07f907; stroke:none;" d="M950 497L951 498L950 497z"/>
<path style="fill:#0c9517; stroke:none;" d="M1457 497L1458 498L1457 497M408 498L409 499L408 498M1084 498L1085 499L1084 498M1155 498L1156 499L1155 498z"/>
<path style="fill:#07f907; stroke:none;" d="M610 499L611 500L610 499M763 499L764 500L763 499z"/>
<path style="fill:#0c9517; stroke:none;" d="M946 500L947 501L946 500z"/>
<path style="fill:#07f907; stroke:none;" d="M1452 500L1453 501L1452 500z"/>
<path style="fill:#0c9517; stroke:none;" d="M1151 501L1152 502L1151 501M1150 502L1151 503L1150 502M178 503L179 504L178 503M604 503L605 504L604 503z"/>
<path style="fill:#07f907; stroke:none;" d="M769 503L770 504L769 503z"/>
<path style="fill:#0c9517; stroke:none;" d="M1606 503L1607 504L1606 503z"/>
<path style="fill:#07f907; stroke:none;" d="M216 505L217 506L216 505z"/>
<path style="fill:#0c9517; stroke:none;" d="M405 505L406 506L405 505z"/>
<path style="fill:#07f907; stroke:none;" d="M1146 505L1147 506L1146 505M1445 505L1446 506L1445 505z"/>
<path style="fill:#0c9517; stroke:none;" d="M773 506L774 507L773 506z"/>
<path style="fill:#07f907; stroke:none;" d="M1145 506L1146 507L1145 506z"/>
<path style="fill:#0c9517; stroke:none;" d="M404 507L405 508L404 507z"/>
<path style="fill:#07f907; stroke:none;" d="M1144 507L1145 508L1144 507M937 508L938 509L937 508z"/>
<path style="fill:#0c9517; stroke:none;" d="M1096 508L1097 509L1096 508z"/>
<path style="fill:#07f907; stroke:none;" d="M1143 508L1144 509L1143 508M596 509L597 510L596 509z"/>
<path style="fill:#0c9517; stroke:none;" d="M1097 509L1098 510L1097 509z"/>
<path style="fill:#07f907; stroke:none;" d="M1142 509L1143 510L1142 509M1440 509L1441 510L1440 509M778 510L779 511L778 510z"/>
<path style="fill:#0c9517; stroke:none;" d="M1141 510L1142 511L1141 510M1008 511L1009 512L1008 511M1140 511L1141 512L1140 511M182 512L183 513L182 512z"/>
<path style="fill:#010101; stroke:none;" d="M587 609L784 609C783.616 590.412 780.073 570.886 769.91 555C742.027 511.414 678.963 500.187 635 525.337C605.661 542.121 587.022 575.276 587 609z"/>
<path style="fill:#07f907; stroke:none;" d="M702 513L703 514L702 513z"/>
<path style="fill:#0c9517; stroke:none;" d="M933 513L934 514L933 513M989 513L990 514L989 513M1196 513L1197 514L1196 513z"/>
<path style="fill:#07f907; stroke:none;" d="M1520 513L1521 514L1520 513z"/>
<path style="fill:#010101; stroke:none;" d="M1521 513.428C1499.49 516.508 1477.82 524.539 1462.17 540.17C1406.27 595.997 1423.68 713.665 1505 735.116C1520.39 739.175 1536.28 739.944 1552 737.714C1665.28 721.652 1669.3 539.743 1559 515.424C1546.94 512.765 1533.28 511.669 1521 513.428z"/>
<path style="fill:#0c9517; stroke:none;" d="M183 514L184 515L183 514M220 514L221 515L220 514z"/>
<path style="fill:#07f907; stroke:none;" d="M708 514L709 515L708 514z"/>
<path style="fill:#0c9517; stroke:none;" d="M932 514L933 515L932 514M1514 514L1515 515L1514 514M659 515L660 516L659 515M714 515L715 516L714 515z"/>
<path style="fill:#07f907; stroke:none;" d="M931 515L932 516L931 515M1037 515L1038 516L1037 515z"/>
<path style="fill:#0c9517; stroke:none;" d="M1137 515L1138 516L1137 515M400 516L401 517L400 516z"/>
<path style="fill:#07f907; stroke:none;" d="M656 516L657 517L656 516z"/>
<path style="fill:#0c9517; stroke:none;" d="M717 516L718 517L717 516z"/>
<path style="fill:#07f907; stroke:none;" d="M1563 516L1564 517L1563 516z"/>
<path style="fill:#0c9517; stroke:none;" d="M720 517L721 518L720 517z"/>
<path style="fill:#07f907; stroke:none;" d="M1043 517L1044 518L1043 517z"/>
<path style="fill:#0c9517; stroke:none;" d="M1104 517L1105 518L1104 517M1135 517L1136 518L1135 517z"/>
<path style="fill:#07f907; stroke:none;" d="M399 518L400 519L399 518z"/>
<path style="fill:#0c9517; stroke:none;" d="M723 518L724 519L723 518M928 519L929 520L928 519M1254 519L1255 520L1254 519z"/>
<path style="fill:#07f907; stroke:none;" d="M1572 519L1573 520L1572 519z"/>
<path style="fill:#0c9517; stroke:none;" d="M728 520L729 521L728 520M968 520L969 521L968 520z"/>
<path style="fill:#07f907; stroke:none;" d="M1256 520L1257 521L1256 520M186 521L187 522L186 521M1258 521L1259 522L1258 521z"/>
<path style="fill:#0c9517; stroke:none;" d="M640 522L641 523L640 522M733 522L734 523L733 522M926 522L927 523L926 522z"/>
<path style="fill:#07f907; stroke:none;" d="M1579 522L1580 523L1579 522z"/>
<path style="fill:#0c9517; stroke:none;" d="M2317 522L2318 523L2317 522M224 523L225 524L224 523M735 523L736 524L735 523z"/>
<path style="fill:#07f907; stroke:none;" d="M963 523L964 524L963 523z"/>
<path style="fill:#0c9517; stroke:none;" d="M1055 523L1056 524L1055 523M1170 523L1171 524L1170 523z"/>
<path style="fill:#07f907; stroke:none;" d="M1486 523L1487 524L1486 523z"/>
<path style="fill:#0c9517; stroke:none;" d="M925 524L926 525L925 524z"/>
<path style="fill:#07f907; stroke:none;" d="M1130 524L1131 525L1130 524z"/>
<path style="fill:#0c9517; stroke:none;" d="M1263 524L1264 525L1263 524z"/>
<path style="fill:#07f907; stroke:none;" d="M1425 524L1426 525L1425 524z"/>
<path style="fill:#0c9517; stroke:none;" d="M188 525L189 526L188 525M580 525L581 526L580 525M924 525L925 526L924 525M1058 525L1059 526L1058 525M1585 525L1586 526L1585 525z"/>
<path style="fill:#07f907; stroke:none;" d="M740 526L741 527L740 526z"/>
<path style="fill:#0c9517; stroke:none;" d="M958 526L959 527L958 526z"/>
<path style="fill:#07f907; stroke:none;" d="M1059 526L1060 527L1059 526z"/>
<path style="fill:#0c9517; stroke:none;" d="M1129 526L1130 527L1129 526z"/>
<path style="fill:#07f907; stroke:none;" d="M395 527L396 528L395 527M630 528L631 529L630 528M1268 528L1269 529L1268 528z"/>
<path style="fill:#0c9517; stroke:none;" d="M577 529L578 530L577 529z"/>
<path style="fill:#07f907; stroke:none;" d="M745 529L746 530L745 529z"/>
<path style="fill:#0c9517; stroke:none;" d="M1063 529L1064 530L1063 529M1112 529L1113 530L1112 529z"/>
<path style="fill:#07f907; stroke:none;" d="M1127 529L1128 530L1127 529M576 530L577 531L576 530z"/>
<path style="fill:#0c9517; stroke:none;" d="M627 530L628 531L627 530M953 530L954 531L953 530z"/>
<path style="fill:#07f907; stroke:none;" d="M1064 530L1065 531L1064 530z"/>
<path style="fill:#0c9517; stroke:none;" d="M1474 530L1475 531L1474 530z"/>
<path style="fill:#07f907; stroke:none;" d="M1065 531L1066 532L1065 531z"/>
<path style="fill:#0c9517; stroke:none;" d="M1126 531L1127 532L1126 531z"/>
<path style="fill:#07f907; stroke:none;" d="M1159 531L1160 532L1159 531z"/>
<path style="fill:#0c9517; stroke:none;" d="M191 532L192 533L191 532M430 532L431 533L430 532M624 532L625 533L624 532M798 532L799 533L798 532z"/>
<path style="fill:#07f907; stroke:none;" d="M1066 532L1067 533L1066 532M1158 532L1159 533L1158 532M750 533L751 534L750 533z"/>
<path style="fill:#0c9517; stroke:none;" d="M1067 533L1068 534L1067 533M1125 533L1126 534L1125 533M1321 533L1322 534L1321 533M392 534L393 535L392 534M1068 534L1069 535L1068 534z"/>
<path style="fill:#07f907; stroke:none;" d="M1635 534L1636 535L1635 534z"/>
<path style="fill:#0c9517; stroke:none;" d="M1069 535L1070 536L1069 535M1124 535L1125 536L1124 535z"/>
<path style="fill:#07f907; stroke:none;" d="M1600 535L1601 536L1600 535M391 536L392 537L391 536z"/>
<path style="fill:#0c9517; stroke:none;" d="M754 536L755 537L754 536z"/>
<path style="fill:#07f907; stroke:none;" d="M755 537L756 538L755 537z"/>
<path style="fill:#0c9517; stroke:none;" d="M1071 537L1072 538L1071 537z"/>
<path style="fill:#07f907; stroke:none;" d="M1123 537L1124 538L1123 537M1277 537L1278 538L1277 537z"/>
<path style="fill:#0c9517; stroke:none;" d="M617 538L618 539L617 538M756 538L757 539L756 538M945 538L946 539L945 538M1152 538L1153 539L1152 538M1278 538L1279 539L1278 538M1637 538L1638 539L1637 538M616 539L617 540L616 539z"/>
<path style="fill:#07f907; stroke:none;" d="M757 539L758 540L757 539z"/>
<path style="fill:#0c9517; stroke:none;" d="M615 540L616 541L615 540M758 540L759 541L758 540z"/>
<path style="fill:#07f907; stroke:none;" d="M1073 540L1074 541L1073 540M1280 540L1281 541L1280 540z"/>
<path style="fill:#0c9517; stroke:none;" d="M195 541L196 542L195 541M426 541L427 542L426 541M1074 541L1075 542L1074 541M568 542L569 543L568 542M760 542L761 543L760 542M1075 542L1076 543L1075 542M1639 542L1640 543L1639 542M196 543L197 544L196 543M388 543L389 544L388 543M941 543L942 544L941 543M1148 543L1149 544L1148 543M1412 543L1413 544L1412 543z"/>
<path style="fill:#07f907; stroke:none;" d="M1459 543L1460 544L1459 543z"/>
<path style="fill:#0c9517; stroke:none;" d="M1076 544L1077 545L1076 544M387 545L388 546L387 545M806 545L807 546L806 545M1120 545L1121 546L1120 545M1146 546L1147 547L1146 546M764 547L765 548L764 547M807 547L808 548L807 547M1896 548L1897 549L1896 548M607 549L608 550L607 549M808 549L809 550L808 549M937 549L938 550L937 549M1079 549L1080 550L1079 549z"/>
<path style="fill:#07f907; stroke:none;" d="M199 550L200 551L199 550z"/>
<path style="fill:#0c9517; stroke:none;" d="M422 550L423 551L422 550z"/>
<path style="fill:#07f907; stroke:none;" d="M766 550L767 551L766 550M1453 550L1454 551L1453 550z"/>
<path style="fill:#0c9517; stroke:none;" d="M767 551L768 552L767 551M1080 551L1081 552L1080 551z"/>
<path style="fill:#07f907; stroke:none;" d="M1287 551L1288 552L1287 551z"/>
<path style="fill:#010101; stroke:none;" d="M2636 552.439C2555.51 565.011 2569.59 704.521 2653 692.572C2733.89 680.984 2719.31 539.427 2636 552.439M3000 552.428C2920.05 563.882 2931.67 702.948 3015 692.714C3085.7 684.031 3091.17 567.523 3021 553.4C3014.09 552.009 3007.02 551.422 3000 552.428z"/>
<path style="fill:#0c9517; stroke:none;" d="M604 553L605 554L604 553M1081 553L1082 554L1081 553z"/>
<path style="fill:#07f907; stroke:none;" d="M1288 553L1289 554L1288 553z"/>
<path style="fill:#0c9517; stroke:none;" d="M383 554L384 555L383 554M1450 554L1451 555L1450 554M1082 555L1083 556L1082 555z"/>
<path style="fill:#07f907; stroke:none;" d="M1289 555L1290 556L1289 555z"/>
<path style="fill:#0c9517; stroke:none;" d="M771 557L772 558L771 557M1448 557L1449 558L1448 557M1404 559L1405 560L1404 559M1084 560L1085 561L1084 560M241 561L242 562L241 561M380 561L381 562L380 561M773 561L774 562L773 561z"/>
<path style="fill:#07f907; stroke:none;" d="M1445 562L1446 563L1445 562z"/>
<path style="fill:#0c9517; stroke:none;" d="M205 563L206 564L205 563M379 563L380 564L379 563M774 563L775 564L774 563z"/>
<path style="fill:#07f907; stroke:none;" d="M1085 563L1086 564L1085 563z"/>
<path style="fill:#0c9517; stroke:none;" d="M1402 564L1403 565L1402 564M2607 564L2608 565L2607 564z"/>
<path style="fill:#07f907; stroke:none;" d="M378 565L379 566L378 565z"/>
<path style="fill:#0c9517; stroke:none;" d="M2140 565L2141 566L2140 565M815 566L816 567L815 566M929 566L930 567L929 566M1086 566L1087 567L1086 566z"/>
<path style="fill:#07f907; stroke:none;" d="M1401 567L1402 568L1401 567z"/>
<path style="fill:#0c9517; stroke:none;" d="M2967 567L2968 568L2967 567M2328 568L2329 569L2328 568M1135 569L1136 570L1135 569M1294 569L1295 570L1294 569M208 570L209 571L208 570M245 570L246 571L245 570M777 570L778 571L777 570z"/>
<path style="fill:#07f907; stroke:none;" d="M1400 570L1401 571L1400 570z"/>
<path style="fill:#0c9517; stroke:none;" d="M2962 572L2963 573L2962 572M778 573L779 574L778 573z"/>
<path style="fill:#07f907; stroke:none;" d="M1399 573L1400 574L1399 573z"/>
<path style="fill:#0c9517; stroke:none;" d="M1959 573L1960 574L1959 573z"/>
<path style="fill:#07f907; stroke:none;" d="M374 574L375 575L374 574z"/>
<path style="fill:#0c9517; stroke:none;" d="M1439 574L1440 575L1439 574M926 576L927 577L926 576M1089 578L1090 579L1089 578M212 579L213 580L212 579M249 579L250 580L249 579z"/>
<path style="fill:#07f907; stroke:none;" d="M1089 579L1090 580L1089 579z"/>
<path style="fill:#0c9517; stroke:none;" d="M2593 579L2594 580L2593 579z"/>
<path style="fill:#07f907; stroke:none;" d="M780 580L781 581L780 580z"/>
<path style="fill:#0c9517; stroke:none;" d="M925 580L926 581L925 580M1971 580L1972 581L1971 580M213 581L214 582L213 581M552 582L553 583L552 582z"/>
<path style="fill:#07f907; stroke:none;" d="M370 583L371 584L370 583z"/>
<path style="fill:#0c9517; stroke:none;" d="M781 584L782 585L781 584M1633 584L1634 585L1633 584M1090 585L1091 586L1090 585M924 586L925 587L924 586z"/>
<path style="fill:#07f907; stroke:none;" d="M1090 586L1091 587L1090 586z"/>
<path style="fill:#0c9517; stroke:none;" d="M1634 587L1635 588L1634 587z"/>
<path style="fill:#07f907; stroke:none;" d="M216 588L217 589L216 588z"/>
<path style="fill:#0c9517; stroke:none;" d="M253 588L254 589L253 588M405 588L406 589L405 588M217 590L218 591L217 590M367 590L368 591L367 590M782 590L783 591L782 590z"/>
<path style="fill:#07f907; stroke:none;" d="M1395 590L1396 591L1395 590M782 591L783 592L782 591M1635 591L1636 592L1635 591z"/>
<path style="fill:#0c9517; stroke:none;" d="M218 592L219 593L218 592z"/>
<path style="fill:#07f907; stroke:none;" d="M366 592L367 593L366 592z"/>
<path style="fill:#0c9517; stroke:none;" d="M550 592L551 593L550 592M1298 593L1299 594L1298 593M1091 595L1092 596L1091 595M1636 595L1637 596L1636 595M401 597L402 598L401 597M1091 597L1091 600L1092 600L1091 597z"/>
<path style="fill:#07f907; stroke:none;" d="M221 599L222 600L221 599z"/>
<path style="fill:#0c9517; stroke:none;" d="M363 599L364 600L363 599M549 599L550 600L549 599M783 600L784 601L783 600z"/>
<path style="fill:#07f907; stroke:none;" d="M1091 600L1092 601L1091 600z"/>
<path style="fill:#0c9517; stroke:none;" d="M1637 600L1638 601L1637 600M362 601L363 602L362 601z"/>
<path style="fill:#07f907; stroke:none;" d="M783 602L784 603L783 602z"/>
<path style="fill:#0c9517; stroke:none;" d="M1995 602L1996 603L1995 602M397 606L398 607L397 606z"/>
<path style="fill:#07f907; stroke:none;" d="M225 608L226 609L225 608z"/>
<path style="fill:#0c9517; stroke:none;" d="M359 608L360 609L359 608M922 608L923 609L922 608M1129 609L1130 610L1129 609M226 610L227 611L226 610M358 610L359 611L358 610M3070 615L3071 616L3070 615M230 619L231 620L230 619M354 619L355 620L354 619z"/>
<path style="fill:#07f907; stroke:none;" d="M353 621L354 622L353 621z"/>
<path style="fill:#0c9517; stroke:none;" d="M270 626L271 627L270 626z"/>
<path style="fill:#07f907; stroke:none;" d="M234 628L235 629L234 628z"/>
<path style="fill:#0c9517; stroke:none;" d="M235 630L236 631L235 630z"/>
<path style="fill:#07f907; stroke:none;" d="M349 630L350 631L349 630z"/>
<path style="fill:#0c9517; stroke:none;" d="M274 635L275 636L274 635z"/>
<path style="fill:#07f907; stroke:none;" d="M238 637L239 638L238 637z"/>
<path style="fill:#0c9517; stroke:none;" d="M346 637L347 638L346 637M821 638L822 639L821 638M239 639L240 640L239 639z"/>
<path style="fill:#07f907; stroke:none;" d="M345 639L346 640L345 639z"/>
<path style="fill:#0c9517; stroke:none;" d="M548 643L549 644L548 643z"/>
<path style="fill:#07f907; stroke:none;" d="M278 644L279 645L278 644z"/>
<path style="fill:#0c9517; stroke:none;" d="M380 644L381 645L380 644M1431 645L1432 646L1431 645z"/>
<path style="fill:#07f907; stroke:none;" d="M1393 646L1394 647L1393 646z"/>
<path style="fill:#0c9517; stroke:none;" d="M243 648L244 649L243 648M341 648L342 649L341 648z"/>
<path style="fill:#07f907; stroke:none;" d="M587 651L588 652L587 651z"/>
<path style="fill:#0c9517; stroke:none;" d="M1637 651L1638 652L1637 651M549 652L550 653L549 652z"/>
<path style="fill:#07f907; stroke:none;" d="M282 653L283 654L282 653z"/>
<path style="fill:#0c9517; stroke:none;" d="M376 653L377 654L376 653M338 655L339 656L338 655M247 657L248 658L247 657M337 657L338 658L337 657z"/>
<path style="fill:#07f907; stroke:none;" d="M286 662L287 663L286 662z"/>
<path style="fill:#0c9517; stroke:none;" d="M372 662L373 663L372 662z"/>
<path style="fill:#07f907; stroke:none;" d="M1435 664L1436 665L1435 664z"/>
<path style="fill:#0c9517; stroke:none;" d="M251 666L252 667L251 666M333 666L334 667L333 666M252 668L253 669L252 668M591 670L592 671L591 670M290 671L291 672L290 671M368 671L369 672L368 671M553 672L554 673L553 672M2427 672L2428 673L2427 672M330 673L331 674L330 673M1398 673L1399 674L1398 673z"/>
<path style="fill:#07f907; stroke:none;" d="M255 675L256 676L255 675z"/>
<path style="fill:#0c9517; stroke:none;" d="M329 675L330 676L329 675z"/>
<path style="fill:#07f907; stroke:none;" d="M593 676L594 677L593 676z"/>
<path style="fill:#0c9517; stroke:none;" d="M2012 676L2013 677L2012 676M256 677L257 678L256 677M1629 677L1630 678L1629 677M1838 677L1839 678L1838 677M294 680L295 681L294 680M817 680L818 681L817 680M1441 680L1442 681L1441 680M1739 680L1740 681L1739 680M2232 681L2233 682L2232 681M326 682L327 683L326 682M363 682L364 683L363 682z"/>
<path style="fill:#07f907; stroke:none;" d="M1442 682L1443 683L1442 682z"/>
<path style="fill:#0c9517; stroke:none;" d="M325 684L326 685L325 684M2231 685L2232 686L2231 685M260 686L261 687L260 686z"/>
<path style="fill:#07f907; stroke:none;" d="M324 686L325 687L324 686z"/>
<path style="fill:#0c9517; stroke:none;" d="M1444 686L1445 687L1444 686M774 687L775 688L774 687M298 689L299 690L298 689M359 691L360 692L359 691z"/>
<path style="fill:#07f907; stroke:none;" d="M600 691L601 692L600 691z"/>
<path style="fill:#0c9517; stroke:none;" d="M1850 691L1851 692L1850 691M772 692L773 693L772 692M1621 692L1622 693L1621 692M264 695L265 696L264 695z"/>
<path style="fill:#07f907; stroke:none;" d="M320 695L321 696L320 695z"/>
<path style="fill:#0c9517; stroke:none;" d="M1619 695L1620 696L1619 695M265 697L266 698L265 697M302 698L303 699L302 698M768 699L769 700L768 699z"/>
<path style="fill:#07f907; stroke:none;" d="M303 700L304 701L303 700z"/>
<path style="fill:#0c9517; stroke:none;" d="M355 700L356 701L355 700M606 700L607 701L606 700M1453 700L1454 701L1453 700z"/>
<path style="fill:#07f907; stroke:none;" d="M766 702L767 703L766 702z"/>
<path style="fill:#0c9517; stroke:none;" d="M1613 703L1614 704L1613 703z"/>
<path style="fill:#07f907; stroke:none;" d="M268 704L269 705L268 704z"/>
<path style="fill:#0c9517; stroke:none;" d="M316 704L317 705L316 704z"/>
<path style="fill:#07f907; stroke:none;" d="M1612 704L1613 705L1612 704z"/>
<path style="fill:#0c9517; stroke:none;" d="M764 705L765 706L764 705M1457 705L1458 706L1457 705M269 706L270 707L269 706z"/>
<path style="fill:#07f907; stroke:none;" d="M763 706L764 707L763 706M1412 707L1413 708L1412 707M307 709L308 710L307 709z"/>
<path style="fill:#0c9517; stroke:none;" d="M351 709L352 710L351 709M761 709L762 710L761 709M570 711L571 712L570 711M804 711L805 712L804 711M758 712L759 713L758 712M312 713L313 714L312 713M757 713L758 714L757 713M572 714L573 715L572 714M756 714L757 715L756 714M1602 714L1603 715L1602 714z"/>
<path style="fill:#07f907; stroke:none;" d="M1636 714L1637 715L1636 714z"/>
<path style="fill:#0c9517; stroke:none;" d="M273 715L274 716L273 715M754 716L755 717L754 716M274 717L275 718L274 717M574 717L575 718L574 717M753 717L754 718L753 717M347 718L348 719L347 718z"/>
<path style="fill:#07f907; stroke:none;" d="M1633 719L1634 720L1633 719z"/>
<path style="fill:#0c9517; stroke:none;" d="M749 720L750 721L749 720M2414 720L2415 721L2414 720M577 721L578 722L577 721M748 721L749 722L748 721M1593 721L1594 722L1593 721M578 722L579 723L578 722M1758 722L1759 723L1758 722M745 723L746 724L745 723M796 723L797 724L796 723M1478 723L1479 724L1478 723M277 724L278 725L277 724M742 725L743 726L742 725M1628 725L1629 726L1628 725M581 726L582 727L581 726z"/>
<path style="fill:#07f907; stroke:none;" d="M1425 726L1426 727L1425 726z"/>
<path style="fill:#0c9517; stroke:none;" d="M1483 726L1484 727L1483 726M343 727L344 728L343 727M1485 727L1486 728L1485 727M583 728L584 729L583 728M735 729L736 730L735 729M791 729L792 730L791 729M1489 729L1490 730L1489 729M643 730L644 731L643 730M733 730L734 731L733 730z"/>
<path style="fill:#07f907; stroke:none;" d="M1624 730L1625 731L1624 730M281 733L282 734L281 733M650 733L651 734L650 733z"/>
<path style="fill:#0c9517; stroke:none;" d="M726 733L727 734L726 733M653 734L654 735L653 734M723 734L724 735L723 734M282 735L283 736L282 735M720 735L721 736L720 735M1506 735L1507 736L1506 735M660 736L661 737L660 736M716 736L717 737L716 736M1558 736L1559 737L1558 736z"/>
<path style="fill:#07f907; stroke:none;" d="M712 737L713 738L712 737M706 738L707 739L706 738z"/>
<path style="fill:#0c9517; stroke:none;" d="M594 739L595 740L594 739M676 739L677 740L676 739M595 740L596 741L595 740M780 740L781 741L780 740M1614 740L1615 741L1614 740M1613 741L1614 742L1613 741z"/>
<path style="fill:#07f907; stroke:none;" d="M285 742L286 743L285 742M1612 742L1613 743L1612 742z"/>
<path style="fill:#0c9517; stroke:none;" d="M286 744L287 745L286 744M774 745L775 746L774 745M334 747L335 748L334 747M604 747L605 748L604 747M607 749L608 750L607 749M1450 749L1451 750L1450 749M767 750L768 751L767 750M610 751L611 752L610 751z"/>
<path style="fill:#07f907; stroke:none;" d="M1453 751L1454 752L1453 751z"/>
<path style="fill:#0c9517; stroke:none;" d="M764 752L765 753L764 752z"/>
<path style="fill:#07f907; stroke:none;" d="M1599 752L1600 753L1599 752z"/>
<path style="fill:#0c9517; stroke:none;" d="M290 753L291 754L290 753M615 754L616 755L615 754z"/>
<path style="fill:#07f907; stroke:none;" d="M1596 754L1597 755L1596 754z"/>
<path style="fill:#0c9517; stroke:none;" d="M617 755L618 756L617 755M330 756L331 757L330 756M757 756L758 757L757 756M753 758L754 759L753 758M1589 758L1590 759L1589 758M625 759L626 760L625 759M751 759L752 760L751 759z"/>
<path style="fill:#07f907; stroke:none;" d="M1587 759L1588 760L1587 759z"/>
<path style="fill:#0c9517; stroke:none;" d="M627 760L628 761L627 760z"/>
<path style="fill:#07f907; stroke:none;" d="M1585 760L1586 761L1585 760z"/>
<path style="fill:#0c9517; stroke:none;" d="M294 762L295 763L294 762M632 762L633 763L632 762M1578 763L1579 764L1578 763M295 764L296 765L295 764z"/>
<path style="fill:#07f907; stroke:none;" d="M637 764L638 765L637 764z"/>
<path style="fill:#0c9517; stroke:none;" d="M326 765L327 766L326 765M640 765L641 766L640 765z"/>
<path style="fill:#07f907; stroke:none;" d="M1573 765L1574 766L1573 765z"/>
<path style="fill:#0c9517; stroke:none;" d="M732 766L733 767L732 766M2657 766L2658 767L2657 766M647 767L648 768L647 767M1677 767L1678 768L1677 767z"/>
<path style="fill:#07f907; stroke:none;" d="M1492 768L1493 769L1492 768z"/>
<path style="fill:#0c9517; stroke:none;" d="M656 769L657 770L656 769M719 769L720 770L719 769z"/>
<path style="fill:#07f907; stroke:none;" d="M1497 769L1498 770L1497 769z"/>
<path style="fill:#0c9517; stroke:none;" d="M1558 769L1559 770L1558 769z"/>
<path style="fill:#07f907; stroke:none;" d="M668 771L669 772L668 771z"/>
<path style="fill:#0c9517; stroke:none;" d="M1509 771L1510 772L1509 771z"/>
</svg>
